<?xml version="1.0" encoding="UTF-8"?>
<svg width="81px" height="72px" viewBox="0 0 81 72" version="1.1" xmlns="http://www.w3.org/2000/svg" xmlns:xlink="http://www.w3.org/1999/xlink">
    <title>Marianne@3x</title>
    <g id="Site-usager" stroke="none" stroke-width="1" fill="none" fill-rule="evenodd">
        <g id="FC---Header-SIG---mobile-Copy-2" transform="translate(-18.000000, -24.000000)" fill-rule="nonzero">
            <g id="Marianne" transform="translate(18.000000, 24.000000)">
                <path d="M12.1640553,11.3216458 C12.177065,11.3216458 12.177065,11.3216458 12.1640553,11.3216458 C12.216094,11.2958855 12.2421134,11.2830054 12.2681327,11.2572451 C12.2681327,11.2572451 12.2551231,11.2572451 12.2551231,11.2572451 C12.2291037,11.2701252 12.2030843,11.2958855 12.1640553,11.3216458" id="Path" fill="#1F356C"></path>
                <path d="M16.9386096,9.75026834 L16.9125902,9.77602862 C16.9255999,9.77602862 16.9386096,9.76314848 16.9386096,9.75026834" id="Path" fill="#1F356C"></path>
                <path d="M15.4294862,11.3989267 C15.5725927,11.2572451 15.7156992,11.1155635 15.8457961,10.9610018 L15.8457961,10.9610018 C16.1059898,10.6647585 16.3661835,10.3942755 16.6654062,10.1366726 C16.756474,10.0593918 16.8475418,9.98211091 16.9386096,9.93059034 C16.964629,9.90483005 16.964629,9.85330948 16.9906483,9.82754919 C16.8735612,9.87906977 16.7955031,9.96923077 16.6654062,10.0207513 C16.6393868,10.0207513 16.6133675,9.99499106 16.6393868,9.96923077 C16.7304546,9.90483005 16.8215224,9.84042934 16.8995805,9.77602862 C16.8995805,9.77602862 16.8865708,9.77602862 16.8865708,9.77602862 C16.8605515,9.77602862 16.8605515,9.75026834 16.8605515,9.72450805 C16.5353094,9.67298748 16.301135,9.89194991 16.0799704,10.0851521 C16.0279317,10.1109123 15.9758929,10.0593918 15.9628832,10.0593918 C15.5986121,10.1753131 15.3254087,10.4973166 14.9611375,10.6389982 L14.9611375,10.5874776 C14.818031,10.6389982 14.6749244,10.7291592 14.5188082,10.7549195 C14.2976436,10.8064401 14.1024983,10.7806798 13.907353,10.7806798 C13.6081303,10.8064401 13.3089075,10.8708408 13.0096848,10.9352415 C12.9966751,10.9352415 12.9966751,10.9352415 12.9836654,10.9481216 C12.8275492,10.9867621 12.671433,11.0511628 12.5283264,11.1284436 L12.5153168,11.1413238 C12.5023071,11.1542039 12.4892974,11.1670841 12.4762877,11.1799642 C12.424249,11.2314848 12.3722102,11.2958855 12.3071618,11.3216458 C12.1510456,11.3989267 12.0339584,11.5277281 11.9038616,11.6436494 C11.8908519,11.6565295 11.8778422,11.6565295 11.8648325,11.6565295 C11.7347357,11.7853309 11.6046388,11.9141324 11.474542,12.0300537 C11.4615323,12.0429338 11.4225032,12.0429338 11.3964839,12.0429338 C11.3964839,12.0429338 11.3964839,12.0429338 11.3964839,12.0429338 C11.3964839,12.0300537 11.4094936,12.0300537 11.4094936,12.0171735 C11.4355129,11.9785331 11.4485226,11.9527728 11.474542,11.9141324 C11.5005613,11.8754919 11.5265807,11.8368515 11.5526001,11.7982111 C11.5916291,11.7466905 11.6176485,11.6951699 11.6566776,11.6565295 C11.6696872,11.6436494 11.6696872,11.6307692 11.6566776,11.6307692 C11.6436679,11.6178891 11.6306582,11.6178891 11.6176485,11.6178891 C11.7347357,11.5019678 11.8908519,11.3989267 12.0339584,11.3087657 L12.0339584,11.3087657 C12.0209487,11.3087657 11.9949294,11.2958855 12.0079391,11.2830054 C12.0209487,11.2572451 12.0339584,11.2443649 12.0469681,11.2186047 C12.0469681,11.2057245 12.0469681,11.2057245 12.0599778,11.1928444 C12.0599778,11.1799642 12.0469681,11.1799642 12.0469681,11.1670841 C12.0079391,11.1928444 11.96891,11.2186047 11.9298809,11.2443649 C11.8648325,11.2958855 11.8258035,11.3989267 11.7347357,11.3989267 C11.7347357,11.3989267 11.7087163,11.3989267 11.6957066,11.3989267 C11.6826969,11.3989267 11.6696872,11.3989267 11.6696872,11.3860465 C11.6696872,11.3860465 11.6696872,11.3860465 11.6696872,11.3860465 C11.6696872,11.3860465 11.6696872,11.3860465 11.6696872,11.3731664 C11.6696872,11.3731664 11.6696872,11.3731664 11.6696872,11.3731664 C11.6696872,11.3602862 11.6826969,11.3602862 11.6826969,11.3474061 C11.6826969,11.3345259 11.6957066,11.3345259 11.6957066,11.3216458 C11.6957066,11.3216458 11.6957066,11.3087657 11.7087163,11.3087657 C11.7087163,11.2958855 11.721726,11.2830054 11.721726,11.2830054 C11.721726,11.2701252 11.7347357,11.2701252 11.7347357,11.2572451 C11.7477454,11.2443649 11.760755,11.2186047 11.760755,11.2057245 C11.760755,11.1928444 11.7737647,11.1928444 11.7737647,11.1799642 C11.7867744,11.1670841 11.7867744,11.1542039 11.7997841,11.1413238 C11.8127938,11.1155635 11.7997841,11.1026834 11.7867744,11.1026834 C11.8258035,11.0382826 11.8908519,10.9996422 11.9559003,10.9610018 L11.9428906,10.9610018 C12.0339584,10.9094812 12.1380359,10.8579606 12.2291037,10.8064401 C12.2421134,10.7935599 12.2551231,10.7806798 12.2681327,10.7677996 C12.1250262,10.8193202 12.0079391,10.8837209 11.8778422,10.9610018 C11.8778422,10.9610018 11.8518228,10.9738819 11.8388132,10.9867621 C11.8388132,10.9867621 11.8127938,10.9996422 11.7737647,10.9610018 C11.7737647,10.9610018 11.7737647,10.9481216 11.7737647,10.9481216 C11.7997841,10.8966011 11.8778422,10.8708408 11.9168713,10.8322004 C11.9428906,10.8322004 11.96891,10.8322004 11.96891,10.8579606 C12.7625008,10.2525939 13.8423046,10.3942755 14.7529825,10.0851521 C14.8310407,10.0336315 14.8960891,9.98211091 14.9741472,9.94347048 C15.0912343,9.89194991 15.1953118,9.77602862 15.3384184,9.69874776 C15.5335636,9.55706619 15.6766702,9.37674419 15.7547283,9.14490161 C15.7547283,9.11914132 15.7287089,9.09338104 15.7287089,9.09338104 C15.4034668,9.42826476 15.0391956,9.69874776 14.6489051,9.89194991 C14.1285177,10.1624329 13.5691012,10.1109123 13.0226945,10.1881932 C13.0487138,10.1366726 13.1007526,10.1366726 13.1397816,10.1366726 C13.1397816,10.0593918 13.1918204,10.0336315 13.2438591,9.99499106 L13.3219172,9.99499106 C13.3479366,9.99499106 13.3479366,9.94347048 13.373956,9.94347048 C13.4259947,9.94347048 13.5040528,9.9177102 13.4780334,9.9177102 C13.3999753,9.81466905 13.2568688,9.99499106 13.1397816,9.9177102 C13.1918204,9.86618962 13.165801,9.80178891 13.2178397,9.77602862 L13.3219172,9.77602862 C13.3219172,9.72450805 13.373956,9.67298748 13.373956,9.67298748 C13.7382271,9.45402504 14.0894886,9.28658318 14.4277404,9.09338104 C14.3496823,9.09338104 14.3106533,9.1706619 14.2325952,9.11914132 C14.2846339,9.11914132 14.2325952,9.04186047 14.2846339,9.04186047 C14.5578373,8.96457961 14.7790019,8.82289803 15.0522053,8.71985689 C14.9481278,8.71985689 14.8830794,8.79713775 14.7790019,8.71985689 C14.8310407,8.6940966 14.85706,8.64257603 14.9221084,8.64257603 L14.9221084,8.56529517 C14.9221084,8.53953488 14.9481278,8.53953488 14.9741472,8.53953488 C14.9481278,8.53953488 14.9221084,8.5137746 14.9221084,8.5137746 C14.9481278,8.46225403 15.0261859,8.48801431 15.065215,8.43649374 C15.0391956,8.43649374 14.9871569,8.43649374 14.9871569,8.41073345 C15.065215,8.30769231 15.1823021,8.29481216 15.312399,8.26905188 C15.2863796,8.21753131 15.2083215,8.26905188 15.2083215,8.21753131 C15.2083215,8.19177102 15.2343409,8.19177102 15.2603602,8.19177102 L15.2083215,8.19177102 C15.1562828,8.16601073 15.1823021,8.11449016 15.1823021,8.08872987 C15.3254087,7.92128801 15.3254087,7.70232558 15.4034668,7.50912343 C15.3774474,7.50912343 15.351428,7.50912343 15.351428,7.48336315 C15.104244,7.75384615 14.7139535,7.84400716 14.3496823,7.9470483 L14.1805564,7.9470483 C14.0634692,7.99856887 13.8813337,7.99856887 13.7642465,7.92128801 C13.660169,7.86976744 13.62114,7.80536673 13.5170625,7.72808587 C13.3219172,7.61216458 13.1267719,7.50912343 12.9056073,7.43184258 C12.2941521,7.23864043 11.6566776,7.13559928 11.019203,7.16135957 C11.2924064,7.019678 11.5916291,7.00679785 11.8778422,6.91663685 C12.2941521,6.80071556 12.6844427,6.64615385 13.1267719,6.67191413 C13.0487138,6.64615385 12.957646,6.67191413 12.8795879,6.67191413 C12.5413361,6.64615385 12.1900746,6.74919499 11.8258035,6.81359571 C11.5786195,6.86511628 11.3574548,6.95527728 11.1102708,7.00679785 C10.9671643,7.05831843 10.8891062,7.2 10.7199803,7.17423971 L10.7199803,7.09695886 C10.9671643,6.80071556 11.266387,6.51735242 11.6566776,6.49159213 C12.0990068,6.41431127 12.5153168,6.49159213 12.957646,6.5431127 C13.2828882,6.56887299 13.5691012,6.64615385 13.8943433,6.71055456 C14.0114305,6.71055456 14.0374499,6.90375671 14.1415274,6.92951699 C14.2846339,6.98103757 14.4407501,6.92951699 14.5838566,7.03255814 C14.5838566,6.98103757 14.5578373,6.92951699 14.5838566,6.89087657 C14.6879341,6.78783542 14.8050213,6.91663685 14.9090988,6.86511628 C15.104244,6.74919499 14.7399729,6.53023256 14.6358954,6.34991055 C14.6358954,6.32415027 14.6619147,6.29838998 14.6619147,6.29838998 C14.85706,6.46583184 15.0001666,6.65903399 15.2473506,6.78783542 C15.3644377,6.83935599 15.6636605,6.90375671 15.6116217,6.76207513 C15.4945346,6.49159213 15.2473506,6.2726297 15.0391956,6.02790698 L15.0391956,5.92486583 C14.9871569,5.92486583 14.9871569,5.89910555 14.9611375,5.87334526 L14.9611375,5.77030411 C14.85706,5.71878354 14.8830794,5.62862254 14.8440503,5.55134168 C14.7659922,5.43542039 14.818031,5.25509839 14.7659922,5.11341682 C14.7139535,4.97173524 14.6879341,4.84293381 14.6619147,4.70125224 C14.5838566,4.28908766 14.4927888,3.92844365 14.4407501,3.52915921 C14.3887114,3.06547406 14.7139535,2.70483005 14.9351181,2.29266547 C15.104244,1.99642218 15.2993893,1.71305903 15.6246314,1.51985689 C15.7026895,1.2236136 15.8978348,0.978890877 16.0929801,0.747048301 C16.2881253,0.515205725 16.6133675,0.360644007 16.8475418,0.257602862 C17.1857936,0.103041145 17.498026,0.0128801431 17.498026,0.0128801431 L0.533397076,0.0128801431 L0.533397076,12.8930233 L12.5933749,12.8930233 C13.0617235,12.5581395 13.5300722,12.4035778 14.1805564,12.0815742 C14.4927888,11.9527728 15.1953118,11.6307692 15.4294862,11.3989267 M11.6566776,9.64722719 C11.6046388,9.64722719 11.513571,9.67298748 11.5395904,9.62146691 C11.5656098,9.50554562 11.7347357,9.50554562 11.8388132,9.45402504 C11.8908519,9.42826476 11.9559003,9.37674419 12.0079391,9.40250447 C12.0599778,9.47978533 12.1250262,9.45402504 12.177065,9.50554562 C12.0209487,9.64722719 11.8258035,9.58282648 11.6566776,9.64722719 M7.88386898,9.11914132 C7.88386898,9.11914132 7.85784961,9.09338104 7.85784961,9.06762075 C8.18309173,8.65545617 8.41726605,8.26905188 8.65144038,7.83112701 C8.9766825,7.66368515 9.2368762,7.41896243 9.48406021,7.14847943 C9.90037012,6.71055456 10.3426994,6.32415027 10.8630868,6.07942755 C11.0582321,6.00214669 11.3054161,6.02790698 11.5005613,6.10518784 C11.4225032,6.20822898 11.3054161,6.18246869 11.2013386,6.24686941 C11.1753192,6.24686941 11.1492999,6.24686941 11.1232805,6.22110912 C11.1492999,6.19534884 11.1492999,6.16958855 11.1492999,6.14382826 C10.9021158,6.41431127 10.563864,6.53023256 10.3687188,6.85223614 C10.2256122,7.09695886 10.1215348,7.40608229 9.80930233,7.48336315 C9.70522485,7.50912343 9.8353217,7.40608229 9.78328296,7.43184258 C9.01571155,7.89552773 8.48231448,8.46225403 7.88386898,9.11914132 M9.92638949,7.50912343 C9.90037012,7.56064401 9.87435075,7.56064401 9.84833138,7.61216458 C9.82231201,7.66368515 9.79629264,7.68944544 9.7442539,7.71520572 C9.71823453,7.71520572 9.69221516,7.71520572 9.69221516,7.68944544 C9.71823453,7.58640429 9.79629264,7.49624329 9.88736043,7.47048301 C9.92638949,7.45760286 9.92638949,7.48336315 9.92638949,7.50912343 M11.0712417,11.1542039 C11.0582321,11.1799642 11.0322127,11.2057245 11.0061933,11.2314848 C11.0322127,11.2314848 11.0582321,11.2572451 11.0322127,11.2701252 C10.980174,11.3216458 10.9151255,11.3731664 10.8500771,11.3989267 C10.8500771,11.3989267 10.8240577,11.3989267 10.8110481,11.3989267 C10.7850287,11.4246869 10.7459996,11.4504472 10.7199803,11.4890877 C10.6939609,11.5148479 10.5508544,11.5019678 10.5898834,11.4633274 C10.6549318,11.4118068 10.7069706,11.3474061 10.772019,11.2958855 C10.8110481,11.2701252 10.8500771,11.2314848 10.8760965,11.1928444 C10.8891062,11.1670841 10.9021158,11.1542039 10.9281352,11.1413238 C10.9671643,11.1155635 11.0972611,11.1026834 11.0712417,11.1542039 M10.6289125,10.9610018 C10.6289125,10.9610018 10.6289125,10.9610018 10.6289125,10.9610018 C10.524835,11.0254025 10.4337672,11.0898032 10.3426994,11.1542039 C10.2386219,11.2186047 10.1215348,11.2572451 10.0174573,11.3087657 C10.0174573,11.3087657 10.0174573,11.3087657 10.0174573,11.3087657 C10.0044476,11.2958855 9.99143791,11.2958855 9.97842823,11.2958855 C9.88736043,11.3474061 9.80930233,11.4118068 9.73124422,11.4890877 C9.71823453,11.5019678 9.70522485,11.5148479 9.69221516,11.5277281 L9.69221516,11.5277281 C9.69221516,11.5277281 9.69221516,11.5277281 9.69221516,11.5277281 L9.65318611,11.5663685 C9.65318611,11.5663685 9.65318611,11.5663685 9.65318611,11.5663685 C9.65318611,11.5663685 9.65318611,11.5663685 9.65318611,11.5663685 C9.64017642,11.5792487 9.61415705,11.6050089 9.60114737,11.6178891 C9.58813768,11.6307692 9.58813768,11.6436494 9.56211831,11.6565295 C9.54910863,11.6694097 9.51007958,11.6694097 9.51007958,11.6436494 C9.51007958,11.6436494 9.51007958,11.6436494 9.51007958,11.6436494 C9.49706989,11.6565295 9.48406021,11.6565295 9.47105052,11.6694097 C9.45804084,11.6822898 9.44503115,11.6822898 9.43202147,11.6951699 C9.43202147,11.6951699 9.41901178,11.6951699 9.41901178,11.6951699 C9.41901178,11.6951699 9.4060021,11.6951699 9.4060021,11.6951699 C9.37998273,11.7209302 9.34095367,11.7466905 9.3149343,11.7724508 C9.26289556,11.8239714 9.21085683,11.8626118 9.17182777,11.9270125 C9.17182777,11.9270125 9.17182777,11.9270125 9.17182777,11.9270125 C9.17182777,11.9270125 9.17182777,11.9270125 9.17182777,11.9398927 C9.17182777,11.9398927 9.17182777,11.9398927 9.15881809,11.9527728 C9.15881809,11.9527728 9.15881809,11.965653 9.1458084,11.965653 C9.1458084,11.965653 9.1458084,11.965653 9.1458084,11.965653 C9.1458084,11.9785331 9.13279872,11.9785331 9.13279872,11.9914132 C9.13279872,11.9914132 9.13279872,11.9914132 9.13279872,11.9914132 C9.13279872,11.9914132 9.11978903,12.0042934 9.10677935,12.0042934 C9.10677935,12.0042934 9.09376966,11.9914132 9.09376966,11.9914132 C9.09376966,11.9914132 9.09376966,11.9785331 9.08075998,11.9785331 C9.06775029,11.965653 9.06775029,11.9527728 9.05474061,11.9398927 C9.05474061,11.9398927 9.05474061,11.9398927 9.05474061,11.9398927 C9.05474061,11.9398927 9.05474061,11.9270125 9.05474061,11.9270125 C9.08075998,11.9012522 9.10677935,11.8754919 9.13279872,11.8368515 C9.13279872,11.8368515 9.13279872,11.8368515 9.13279872,11.8368515 C9.1458084,11.8239714 9.1458084,11.8110912 9.15881809,11.8110912 C9.17182777,11.7982111 9.18483746,11.7724508 9.19784714,11.7595707 C9.19784714,11.7466905 9.21085683,11.7466905 9.21085683,11.7338104 C9.2368762,11.6951699 9.26289556,11.6694097 9.28891493,11.6307692 C9.28891493,11.6307692 9.28891493,11.6307692 9.28891493,11.6307692 C9.28891493,11.6307692 9.30192462,11.6178891 9.30192462,11.6178891 C9.3149343,11.6050089 9.32794399,11.5792487 9.34095367,11.5663685 C9.35396336,11.5534884 9.35396336,11.5406082 9.36697304,11.5148479 L9.36697304,11.5148479 L9.36697304,11.5148479 C9.36697304,11.5148479 9.36697304,11.5148479 9.36697304,11.5019678 C9.37998273,11.4762075 9.37998273,11.4633274 9.39299241,11.4504472 C9.39299241,11.4504472 9.39299241,11.4504472 9.39299241,11.4504472 L9.39299241,11.4375671 C9.39299241,11.4246869 9.39299241,11.4246869 9.4060021,11.4118068 C9.4060021,11.4118068 9.4060021,11.4118068 9.4060021,11.4118068 C9.4060021,11.3989267 9.4060021,11.3860465 9.41901178,11.3731664 C9.41901178,11.3731664 9.41901178,11.3602862 9.41901178,11.3602862 C9.44503115,11.3087657 9.48406021,11.2701252 9.52308926,11.2314848 C9.52308926,11.2314848 9.51007958,11.2314848 9.51007958,11.2314848 C9.47105052,11.2572451 9.44503115,11.2830054 9.41901178,11.3087657 C9.39299241,11.3345259 9.34095367,11.2958855 9.37998273,11.2701252 C9.4060021,11.2572451 9.41901178,11.2314848 9.43202147,11.2186047 C9.43202147,11.2186047 9.43202147,11.2186047 9.43202147,11.2186047 C9.47105052,11.1799642 9.51007958,11.1284436 9.56211831,11.0898032 C9.58813768,11.0640429 9.61415705,11.0511628 9.64017642,11.0382826 C9.64017642,11.0382826 9.65318611,11.0254025 9.65318611,11.0254025 C9.66619579,10.9996422 9.69221516,10.9867621 9.70522485,10.9610018 C9.70522485,10.9610018 9.70522485,10.9610018 9.70522485,10.9610018 C9.93939917,10.7420394 10.3426994,10.7420394 10.6419222,10.6003578 C10.7590093,10.5488372 10.9151255,10.6261181 11.0322127,10.6003578 C11.1102708,10.6003578 11.1753192,10.6003578 11.2533773,10.6518784 C11.0322127,10.6905188 10.8370674,10.8322004 10.6289125,10.9610018 M11.1362902,9.2608229 C11.1102708,9.23506261 11.2143483,9.2608229 11.2403677,9.20930233 L11.0452224,9.20930233 C11.019203,9.20930233 11.019203,9.18354204 11.019203,9.15778175 C10.9021158,9.18354204 10.7459996,9.23506261 10.6289125,9.2608229 C10.4597866,9.31234347 10.3036703,9.42826476 10.1085251,9.47978533 C9.8353217,9.58282648 9.61415705,9.80178891 9.32794399,9.89194991 C9.30192462,9.89194991 9.30192462,9.86618962 9.30192462,9.84042934 C9.32794399,9.76314848 9.41901178,9.73738819 9.47105052,9.67298748 C9.47105052,9.64722719 9.47105052,9.62146691 9.44503115,9.62146691 C9.64017642,9.3509839 9.9133798,9.20930233 10.1605638,8.99033989 L10.1605638,8.91305903 C10.2386219,8.81001789 10.3557091,8.77137746 10.4077478,8.64257603 C10.4337672,8.56529517 10.5378447,8.47513417 10.6549318,8.4236136 C10.6289125,8.39785331 10.5768737,8.39785331 10.5768737,8.34633274 C10.4727962,8.34633274 10.3817285,8.39785331 10.277651,8.32057245 C10.3296897,8.28193202 10.3817285,8.25617174 10.4337672,8.23041145 C10.4077478,8.23041145 10.3947381,8.21753131 10.3817285,8.19177102 C10.3557091,8.14025045 10.4337672,8.08872987 10.4988156,8.07584973 C10.6028931,8.05008945 10.7199803,8.05008945 10.7980384,7.97280859 C10.6289125,7.9470483 10.4337672,8.02432916 10.2516316,7.92128801 C10.3687188,7.59928444 10.5768737,7.34168157 10.8630868,7.18711986 C10.8891062,7.18711986 10.9411449,7.18711986 10.9411449,7.21288014 C10.9411449,7.32880143 10.8630868,7.43184258 10.7459996,7.45760286 C10.9411449,7.50912343 11.1362902,7.50912343 11.3314354,7.59928444 C11.3054161,7.65080501 11.2533773,7.62504472 11.227358,7.62504472 C11.3444451,7.70232558 11.5005613,7.65080501 11.6176485,7.74096601 C11.5395904,7.81824687 11.474542,7.74096601 11.3964839,7.74096601 C12.1640553,7.95992844 12.9706557,8.1273703 13.6081303,8.61681574 C13.0617235,8.88729875 12.5023071,9.00322004 11.9168713,9.13202147 C11.8388132,9.13202147 11.7997841,9.13202147 11.721726,9.10626118 C11.721726,9.13202147 11.721726,9.18354204 11.6957066,9.18354204 C11.5916291,9.18354204 11.5265807,9.18354204 11.4485226,9.23506261 C11.3574548,9.31234347 11.2143483,9.33810376 11.1362902,9.2608229" id="Shape" fill="#000091"></path>
                <path d="M36.4141077,0.0386404293 L22.4286966,0.0386404293 C22.4286966,0.0386404293 22.4547159,0.0386404293 22.5587934,0.103041145 C22.6758806,0.16744186 22.8189871,0.244722719 22.9100549,0.283363148 C23.0921905,0.37352415 23.2613164,0.489445438 23.3784036,0.669767442 C23.4304423,0.747048301 23.4954907,0.888729875 23.4564617,0.99177102 C23.4044229,1.10769231 23.3784036,1.3137746 23.2613164,1.35241503 C23.1182099,1.42969589 22.9230646,1.42969589 22.740929,1.4039356 C22.6368515,1.4039356 22.5457837,1.37817531 22.4417062,1.35241503 C22.8059774,1.4940966 23.1572389,1.6744186 23.4044229,2.00930233 C23.4304423,2.0608229 23.5215101,2.08658318 23.6255876,2.08658318 C23.6516069,2.08658318 23.6516069,2.13810376 23.6516069,2.16386404 C23.5995682,2.21538462 23.5475295,2.2411449 23.5735488,2.30554562 L23.6516069,2.30554562 C23.7686941,2.25402504 23.7556844,2.00930233 23.9248103,2.08658318 C24.0418975,2.16386404 24.0939362,2.3313059 24.0288878,2.44722719 C23.9248103,2.55026834 23.8337425,2.61466905 23.729665,2.69194991 C23.7036457,2.74347048 23.7036457,2.8078712 23.729665,2.85939177 C23.8077232,2.96243292 23.8337425,3.05259392 23.8467522,3.15563506 C23.9248103,3.32307692 23.9508297,3.51627907 24.0158781,3.69660107 C24.1199556,4.05724508 24.2110234,4.43076923 24.185004,4.79141324 C24.185004,4.98461538 24.0809265,5.15205725 24.1589846,5.34525939 C24.2110234,5.53846154 24.3281105,5.68014311 24.432188,5.86046512 C24.5362655,6.00214669 24.6273333,6.10518784 24.7053914,6.24686941 C24.8484979,6.49159213 25.1217013,6.73631485 25.0046142,7.019678 C24.926556,7.18711986 24.6663623,7.16135957 24.4842268,7.26440072 C24.3411202,7.380322 24.4582074,7.58640429 24.5362655,7.70232558 C24.6533527,7.92128801 24.393159,8.06296959 24.2110234,8.14025045 C24.2630621,8.21753131 24.3541299,8.19177102 24.3801493,8.24329159 C24.4061687,8.35921288 24.5232558,8.43649374 24.4582074,8.56529517 C24.3541299,8.70697674 24.0679168,8.7842576 24.2110234,9.00322004 C24.3151009,9.1706619 24.2500524,9.36386404 24.185004,9.54418605 C24.1069459,9.76314848 23.9118006,9.86618962 23.7426747,9.90483005 C23.5995682,9.95635063 23.4174326,9.95635063 23.2743261,9.93059034 C23.2222873,9.90483005 23.1702486,9.87906977 23.1312195,9.87906977 C22.7149096,9.82754919 22.2985997,9.71162791 21.8822898,9.71162791 C21.7652026,9.73738819 21.6351058,9.76314848 21.544038,9.80178891 C21.4269508,9.87906977 21.335883,9.96923077 21.2448152,10.0593918 C21.2448152,10.0593918 21.2448152,10.0593918 21.2448152,10.0593918 C21.2318056,10.0851521 21.2057862,10.0980322 21.1927765,10.1237925 C21.1797668,10.1366726 21.1667571,10.1495528 21.1667571,10.1624329 C21.1537475,10.1753131 21.1537475,10.1753131 21.1407378,10.1881932 C21.0626797,10.2783542 21.0106409,10.3685152 20.9455925,10.4715564 C20.9455925,10.4844365 20.9325828,10.4844365 20.9325828,10.4844365 C20.9325828,10.4973166 20.9195731,10.5101968 20.9065634,10.5230769 C20.8285053,10.6647585 20.7634569,10.8193202 20.7244279,10.9738819 C20.555302,11.5277281 20.6333601,12.0042934 20.7504472,12.1202147 C20.7764666,12.145975 21.5570477,12.3906977 22.1034544,12.6354204 C22.3636481,12.7513417 22.532774,12.8286225 22.6888903,12.9316637 L36.4271174,12.9316637 L36.4271174,0.0386404293 L36.4141077,0.0386404293 Z" id="Path" fill="#E1000F"></path>
                <path d="M23.2613164,4.72701252 C23.3653939,4.75277281 23.5085004,4.75277281 23.5085004,4.80429338 C23.4564617,4.99749553 23.1702486,5.0490161 23.0141324,5.24221825 L22.9360743,5.24221825 C22.8580162,5.29373882 22.8840355,5.40966011 22.8189871,5.40966011 C22.740929,5.38389982 22.6758806,5.40966011 22.5978225,5.43542039 C22.7018999,5.53846154 22.8189871,5.60286225 22.9620936,5.57710197 C22.988113,5.57710197 23.0401517,5.62862254 23.0401517,5.68014311 C23.0401517,5.68014311 23.0661711,5.68014311 23.0921905,5.65438283 C23.1182099,5.65438283 23.1442292,5.65438283 23.1442292,5.68014311 L23.1442292,5.78318426 C23.0661711,5.8862254 22.949084,5.83470483 22.8450065,5.86046512 C23.0401517,5.91198569 23.235297,5.91198569 23.4174326,5.86046512 C23.5605391,5.80894454 23.4174326,5.56422182 23.5215101,5.44830054 C23.4694713,5.44830054 23.5215101,5.37101968 23.4694713,5.37101968 C23.5215101,5.31949911 23.5735488,5.25509839 23.6125779,5.2293381 C23.6646166,5.2293381 23.729665,5.20357782 23.7556844,5.15205725 C23.7556844,5.10053667 23.6516069,5.07477639 23.6776263,5.03613596 C23.8207328,4.93309481 23.9508297,4.79141324 23.8987909,4.64973166 C23.8727716,4.57245081 23.6776263,4.57245081 23.5605391,4.52093023 C23.443452,4.46940966 23.2873358,4.52093023 23.1442292,4.54669052 C23.0271421,4.54669052 22.8970452,4.62397138 22.7799581,4.64973166 C22.6108322,4.70125224 22.4547159,4.79141324 22.3116094,4.89445438 C22.4807353,4.81717352 22.6498612,4.79141324 22.8450065,4.75277281 C22.988113,4.72701252 23.1052002,4.70125224 23.2613164,4.72701252" id="Path" fill="#808080"></path>
                <path d="M32.4201345,68.3806798 C32.7063475,68.3806798 32.9535316,68.5996422 32.8234347,69.1019678 L31.5094565,69.4497317 C31.7176115,68.8314848 32.107902,68.3806798 32.4201345,68.3806798 M33.1486768,70.4930233 L32.8884831,70.4930233 C32.563241,70.8794275 32.1989698,71.188551 31.8477083,71.188551 C31.4834372,71.188551 31.3013016,70.9695886 31.3013016,70.4930233 C31.3013016,70.2998211 31.327321,70.0937388 31.36635,69.9134168 L33.4999383,69.2178891 C33.9162482,68.2389982 33.4088705,67.8139535 32.8234347,67.8139535 C31.8086793,67.8139535 30.663827,69.565653 30.663827,70.9438283 C30.663827,71.6007156 30.9760595,71.9613596 31.4704275,71.9613596 C32.0558633,71.9613596 32.6543088,71.4075134 33.1486768,70.4930233 M32.810425,67.3502683 L34.0203257,66.2554562 L34.0203257,66.1008945 L33.2137252,66.1008945 L32.4981926,67.3631485 L32.810425,67.3631485 L32.810425,67.3502683 Z M28.270045,68.4064401 L28.972568,68.4064401 L27.8537351,71.4461538 C27.7496576,71.7037567 27.8927642,71.9613596 28.1659676,71.9613596 C28.9595583,71.9613596 29.9092653,71.2915921 30.2735365,70.3384615 L30.0783912,70.3384615 C29.7921782,70.737746 29.1677133,71.1756708 28.6993646,71.2658318 L29.7271297,68.4064401 L30.7809142,68.4064401 L30.911011,67.9685152 L29.8832459,67.9685152 L30.2735365,66.873703 L29.8702363,66.873703 L29.1416939,67.9685152 L28.270045,68.0844365 L28.270045,68.4064401 L28.270045,68.4064401 Z M27.5415027,68.2518784 C27.6325705,67.9685152 27.4374252,67.8139535 27.2943187,67.8139535 C26.6828635,67.8139535 25.9413115,68.3677996 25.6550984,69.1277281 L25.8502437,69.1277281 C26.0453889,68.8443649 26.3836407,68.5352415 26.7088829,68.4837209 L25.5250015,71.5234347 C25.4209241,71.8067979 25.629079,71.9613596 25.7851952,71.9613596 C26.3706311,71.9613596 27.0601443,71.4075134 27.3463574,70.647585 L27.1512121,70.647585 C26.9560669,70.9309481 26.6178151,71.2400716 26.2925729,71.2915921 L27.5415027,68.2518784 Z M27.6585898,67.0411449 C27.9187835,67.0411449 28.1399482,66.8221825 28.1399482,66.5645796 C28.1399482,66.3069767 27.9187835,66.0880143 27.6585898,66.0880143 C27.3853865,66.0880143 27.1772315,66.3069767 27.1772315,66.5645796 C27.1772315,66.8350626 27.3853865,67.0411449 27.6585898,67.0411449 M21.9473382,68.6640429 C22.1294738,68.6640429 22.2335513,68.9474061 21.9473382,69.5785331 L21.1147184,71.4075134 C20.9586022,71.7552773 21.1277281,71.9742397 21.4659799,71.9742397 C21.6741348,71.9742397 21.7652026,71.9227191 21.8562704,71.7037567 L22.6758806,69.565653 C23.0531614,69.1019678 23.7556844,68.6125224 24.0679168,68.6125224 C24.2890815,68.6125224 24.2630621,68.7928444 24.1199556,69.0762075 L22.8580162,71.459034 C22.740929,71.6908766 22.8970452,71.9742397 23.1702486,71.9742397 C23.7817038,71.9742397 24.5232558,71.4203936 24.8094689,70.6604651 L24.5883042,70.6604651 C24.393159,70.9438283 24.0549072,71.2529517 23.729665,71.3044723 L24.8094689,69.1406082 C24.9525754,68.8701252 25.0176238,68.6125224 25.0176238,68.4064401 C25.0176238,68.0586762 24.8224786,67.8268336 24.4451977,67.8268336 C23.9118006,67.8268336 23.4564617,68.4193202 22.8059774,69.1534884 L22.8059774,68.5867621 C22.8059774,68.1874776 22.6758806,67.8268336 22.3116094,67.8268336 C21.8822898,67.8268336 21.4919993,68.4966011 21.1797668,69.1406082 L21.3749121,69.1406082 C21.5960767,68.8314848 21.791222,68.6640429 21.9473382,68.6640429 M21.1017087,68.7413238 C21.2448152,68.2389982 21.1667571,67.8139535 20.7894763,67.8139535 C20.3081179,67.8139535 20.1520017,68.1359571 19.6836531,69.1406082 L19.6836531,68.5738819 C19.6836531,68.1745975 19.5535562,67.8139535 19.1892851,67.8139535 C18.7599655,67.8139535 18.3696749,68.4837209 18.0574425,69.1277281 L18.2525877,69.1277281 C18.4607427,68.8314848 18.655888,68.6511628 18.8120042,68.6511628 C18.9941398,68.6511628 19.0982173,68.9345259 18.8120042,69.565653 L17.9793844,71.3946333 C17.8232682,71.7423971 17.9923941,71.9613596 18.3306459,71.9613596 C18.5388008,71.9613596 18.6298686,71.909839 18.7209364,71.6908766 L19.5145272,69.5527728 C19.7487015,69.2694097 19.9568565,69.0246869 20.2170502,68.7542039 L21.1017087,68.7542039 L21.1017087,68.7413238 Z M16.5613287,68.3806798 C16.8475418,68.3806798 17.0947258,68.5996422 16.964629,69.1019678 L15.6506508,69.4497317 C15.8718154,68.8314848 16.2490963,68.3806798 16.5613287,68.3806798 M17.2898711,70.4930233 L17.0296774,70.4930233 C16.7044353,70.8794275 16.3401641,71.188551 15.9889026,71.188551 C15.6246314,71.188551 15.4424958,70.9695886 15.4424958,70.4930233 C15.4424958,70.2998211 15.4685152,70.0937388 15.5075443,69.9134168 L17.6411326,69.2178891 C18.0574425,68.2389982 17.5630745,67.8139535 16.964629,67.8139535 C15.9498735,67.8139535 14.8050213,69.565653 14.8050213,70.9438283 C14.8050213,71.6007156 15.1172537,71.9613596 15.6116217,71.9613596 C16.1970576,71.9613596 16.7955031,71.4075134 17.2898711,70.4930233 M12.4112393,68.4064401 L13.1137623,68.4064401 L11.9949294,71.4461538 C11.8908519,71.7037567 12.0339584,71.9613596 12.3071618,71.9613596 C13.1007526,71.9613596 14.0634692,71.2915921 14.4147307,70.3384615 L14.2195855,70.3384615 C13.9333724,70.737746 13.3089075,71.1756708 12.8405589,71.2658318 L13.868324,68.4064401 L14.9221084,68.4064401 L15.0522053,67.9685152 L14.0244402,67.9685152 L14.4147307,66.873703 L14.0114305,66.873703 L13.2828882,67.9685152 L12.4112393,68.0844365 L12.4112393,68.4064401 L12.4112393,68.4064401 Z M8.67745975,70.7763864 C8.67745975,69.836136 9.73124422,68.5610018 10.3296897,68.5610018 C10.4597866,68.5610018 10.5898834,68.5738819 10.6939609,68.6125224 L10.0825057,70.2354204 C9.73124422,70.6604651 9.18483746,71.1756708 8.92464376,71.1756708 C8.76852754,71.1756708 8.67745975,71.0597496 8.67745975,70.7763864 M11.9168713,67.6336315 L11.5916291,67.6078712 L11.227358,67.9685152 L11.1623095,67.9685152 C9.61415705,67.9685152 7.9489174,69.8747764 7.9489174,71.3817531 C7.9489174,71.729517 8.14406267,71.9613596 8.52134353,71.9613596 C8.9766825,71.9613596 9.41901178,71.3173524 9.92638949,70.6347048 L9.90037012,70.8794275 C9.8353217,71.5749553 10.0564863,71.9613596 10.4207575,71.9613596 C10.8500771,71.9613596 11.2403677,71.2915921 11.5395904,70.647585 L11.3444451,70.647585 C11.1362902,70.9438283 10.9411449,71.1241503 10.7850287,71.1241503 C10.6289125,71.1241503 10.5118253,70.827907 10.7850287,70.2096601 L11.9168713,67.6336315 Z M8.59940164,68.7413238 C8.74250817,68.2389982 8.66445006,67.8139535 8.28716921,67.8139535 C7.80581087,67.8139535 7.64969465,68.1359571 7.181346,69.1406082 L7.181346,68.5738819 C7.181346,68.1745975 7.05124915,67.8139535 6.67396829,67.8139535 C6.2446487,67.8139535 5.85435815,68.4837209 5.5551354,69.1277281 L5.75028067,69.1277281 C5.95843563,68.8314848 6.1535809,68.6511628 6.30969712,68.6511628 C6.49183271,68.6511628 6.59591018,68.9345259 6.30969712,69.565653 L5.46406761,71.4075134 C5.30795139,71.7552773 5.47707729,71.9742397 5.8153291,71.9742397 C6.02348405,71.9742397 6.11455185,71.9227191 6.20561964,71.7037567 L7.02522978,69.5527728 C7.25940411,69.2694097 7.46755906,69.0246869 7.72775276,68.7542039 L8.59940164,68.7542039 L8.59940164,68.7413238 Z M3.14834372,71.819678 L3.22640183,71.5878354 C2.19863673,71.3946333 2.06853988,71.3946333 2.48484979,70.286941 L2.87514034,69.2436494 L3.69475048,69.2436494 C4.20212818,69.2436494 4.21513787,69.4626118 4.13707976,70.016458 L4.43630251,70.016458 L5.11280612,68.1745975 L4.81358337,68.1745975 C4.55338967,68.6125224 4.3582444,68.9474061 3.79882796,68.9474061 L2.97921782,68.9474061 L3.53863426,67.4404293 C3.73377953,66.8994633 3.82484733,66.7964222 4.5273703,66.7964222 L4.70950589,66.7964222 C5.42503855,66.7964222 5.51610635,66.9896243 5.51610635,67.7366726 L5.80231941,67.7366726 L6.03649374,66.4872987 L2.06853988,66.4872987 L1.99048177,66.7191413 C2.81009191,66.8865832 2.88815002,66.963864 2.51086916,68.0200358 L1.66523965,70.2998211 C1.27494911,71.3431127 1.11883289,71.4332737 0.169125902,71.6007156 L0.104077478,71.8325581 L3.14834372,71.8325581 L3.14834372,71.819678 Z" id="Shape" fill="#000000"></path>
                <path d="M22.8319968,59.5062612 C23.1182099,59.5062612 23.3653939,59.7252236 23.235297,60.2275492 L21.9213189,60.5753131 C22.1294738,59.9570662 22.5197644,59.5062612 22.8319968,59.5062612 M23.5605391,61.6186047 L23.3003454,61.6186047 C22.9751033,62.0050089 22.6108322,62.3141324 22.2595707,62.3141324 C21.8952995,62.3141324 21.7131639,62.0951699 21.7131639,61.6186047 C21.7131639,61.4254025 21.7391833,61.2193202 21.7782123,61.0389982 L23.9118006,60.3434705 C24.3281105,59.3645796 23.8207328,58.9395349 23.235297,58.9395349 C22.2205416,58.9395349 21.0756893,60.6912343 21.0756893,62.0694097 C21.0756893,62.726297 21.3879218,63.086941 21.8822898,63.086941 C22.4677256,63.0998211 23.0661711,62.5330948 23.5605391,61.6186047 M23.2222873,58.4758497 L24.432188,57.3810376 L24.432188,57.2264758 L23.6255876,57.2264758 L22.9100549,58.4887299 L23.2222873,58.4887299 L23.2222873,58.4758497 Z M18.6819073,59.5320215 L19.3844303,59.5320215 L18.2655974,62.5717352 C18.16152,62.8293381 18.3046265,63.086941 18.5778299,63.086941 C19.3714206,63.086941 20.3211276,62.4171735 20.6853988,61.4640429 L20.4902535,61.4640429 C20.2040405,61.8633274 19.5795756,62.3012522 19.1112269,62.3914132 L20.138992,59.5320215 L21.1927765,59.5320215 L21.3228734,59.0940966 L20.2951083,59.0940966 L20.6853988,57.9992844 L20.2820986,57.9992844 L19.5535562,59.0940966 L18.6819073,59.222898 L18.6819073,59.5320215 Z M17.953365,59.3903399 C18.0444328,59.1069767 17.8492875,58.952415 17.6931713,58.952415 C17.0817161,58.952415 16.3401641,59.5062612 16.053951,60.2661896 L16.2490963,60.2661896 C16.4442416,59.9828265 16.7824934,59.673703 17.1077355,59.6221825 L15.9238542,62.6618962 C15.8197767,62.9452594 16.0279317,63.0998211 16.1840479,63.0998211 C16.7694837,63.0998211 17.458997,62.545975 17.74521,61.7860465 L17.5500648,61.7860465 C17.3549195,62.0694097 17.0166677,62.3785331 16.6914256,62.4300537 L17.953365,59.3903399 Z M18.0704522,58.1796064 C18.3306459,58.1796064 18.5518105,57.960644 18.5518105,57.7030411 C18.5518105,57.4454383 18.3306459,57.2264758 18.0704522,57.2264758 C17.7972488,57.2264758 17.5890938,57.4454383 17.5890938,57.7030411 C17.5890938,57.960644 17.7972488,58.1796064 18.0704522,58.1796064 M14.2976436,62.4300537 L16.2490963,57.3037567 L16.1840479,57.2135957 L14.8310407,57.3681574 L14.8310407,57.5227191 L15.0912343,57.7159213 C15.3254087,57.8962433 15.2473506,58.0636852 15.0391956,58.6432916 L13.5560915,62.5588551 C13.4259947,62.7906977 13.5951206,63.0740608 13.868324,63.0740608 C14.4797792,63.0740608 15.1432731,62.5202147 15.4294862,61.7602862 L15.2343409,61.7602862 C15.0261859,62.0565295 14.609876,62.365653 14.2976436,62.4300537 M10.31668,61.9019678 C10.31668,60.9617174 11.3704645,59.6865832 11.96891,59.6865832 C12.0990068,59.6865832 12.216094,59.6994633 12.3331812,59.7381038 L11.7087163,61.3610018 C11.3574548,61.7860465 10.8110481,62.3012522 10.5508544,62.3012522 C10.4077478,62.3141324 10.31668,62.1853309 10.31668,61.9019678 M13.5560915,58.772093 L13.2308494,58.7463327 L12.8665782,59.1069767 L12.8015298,59.1069767 C11.2533773,59.1069767 9.58813768,61.0132379 9.58813768,62.5202147 C9.58813768,62.8679785 9.78328296,63.0998211 10.1605638,63.0998211 C10.6159028,63.0998211 11.0582321,62.455814 11.5656098,61.7731664 L11.5395904,62.0178891 C11.474542,62.7134168 11.6957066,63.0998211 12.0599778,63.0998211 C12.4892974,63.0998211 12.8795879,62.4300537 13.1788107,61.7860465 L12.9836654,61.7860465 C12.7755105,62.0822898 12.5803652,62.2626118 12.424249,62.2626118 C12.2681327,62.2626118 12.1510456,61.9663685 12.424249,61.3610018 L13.5560915,58.772093 Z M6.02348405,63.8339893 C6.02348405,63.4347048 6.4137746,63.177102 6.97319104,62.9581395 C7.15532663,63.0483005 7.4415397,63.1513417 7.80581087,63.267263 C8.39124668,63.4604651 8.61241133,63.537746 8.61241133,63.7051878 C8.61241133,64.078712 8.07901425,64.3620751 7.10328789,64.3620751 C6.37474554,64.3749553 6.02348405,64.2203936 6.02348405,63.8339893 M7.62367528,61.3738819 C7.36348159,61.3738819 7.27241379,61.1549195 7.27241379,60.9101968 C7.27241379,60.1502683 7.63668497,59.2357782 8.22212078,59.2357782 C8.48231448,59.2357782 8.57338227,59.4547406 8.57338227,59.6994633 C8.57338227,60.4465116 8.19610141,61.3738819 7.62367528,61.3738819 M9.28891493,63.4604651 C9.28891493,62.9710197 8.84658565,62.7906977 8.13105299,62.5846154 C7.5195978,62.4042934 7.23338474,62.3527728 7.23338474,62.1466905 C7.23338474,61.9921288 7.36348159,61.7989267 7.62367528,61.6572451 C8.6384307,61.6057245 9.27590525,60.7041145 9.27590525,59.9055456 C9.27590525,59.763864 9.24988588,59.6350626 9.21085683,59.5191413 L9.90037012,59.5191413 L10.030467,59.0812165 L8.85959534,59.0812165 C8.70347912,58.9781753 8.50833385,58.9266547 8.28716921,58.9266547 C7.22037505,58.9266547 6.53086176,59.854025 6.53086176,60.6783542 C6.53086176,61.2064401 6.8430942,61.5670841 7.33746222,61.6314848 C6.8430942,61.8633274 6.55688113,62.1080501 6.55688113,62.4171735 C6.55688113,62.5974955 6.62192955,62.726297 6.77804577,62.8422182 C5.63319351,63.177102 5.16484486,63.6021467 5.16484486,64.0915921 C5.16484486,64.619678 5.86736784,64.8386404 6.69998766,64.8386404 C8.10503362,64.8515206 9.28891493,64.0915921 9.28891493,63.4604651 M3.98096354,60.3692308 C4.48834125,60.3692308 4.50135093,60.5881932 4.42329283,61.1420394 L4.72251558,61.1420394 L5.39901918,59.3001789 L5.09979643,59.3001789 C4.83960274,59.7381038 4.64445747,60.0729875 4.08504102,60.0729875 L2.95319845,60.0729875 L3.51261489,58.5660107 C3.70776016,58.0250447 3.81183764,57.9220036 4.50135093,57.9220036 L4.99571896,57.9220036 C5.71125162,57.9220036 5.80231941,58.1152057 5.80231941,58.862254 L6.08853248,58.862254 L6.3227068,57.6128801 L2.06853988,57.6128801 L1.99048177,57.8447227 C2.81009191,58.0121646 2.88815002,58.0894454 2.51086916,59.1456172 L1.66523965,61.4254025 C1.27494911,62.4686941 1.11883289,62.5588551 0.169125902,62.726297 L0.104077478,62.9581395 L4.83960274,62.9581395 L5.68523225,61.6314848 L5.35999013,61.6314848 C4.81358337,62.1724508 4.25416692,62.6490161 3.20038246,62.6490161 C1.93844303,62.6490161 2.0555302,62.5846154 2.47184011,61.4254025 L2.86213065,60.3821109 L3.98096354,60.3821109 L3.98096354,60.3692308 Z M4.59241873,57.2264758 L5.80231941,56.3506261 L5.80231941,56.1960644 L4.99571896,56.1960644 L4.28018629,57.2264758 L4.59241873,57.2264758 Z" id="Shape" fill="#000000"></path>
                <path d="M22.6758806,50.6447227 C22.9620936,50.6447227 23.2092777,50.8636852 23.0791808,51.3660107 L21.7652026,51.7137746 C21.9733576,51.0826476 22.3636481,50.6447227 22.6758806,50.6447227 M23.4044229,52.7570662 L23.1442292,52.7570662 C22.8189871,53.1434705 22.4547159,53.4525939 22.1034544,53.4525939 C21.7391833,53.4525939 21.5570477,53.2336315 21.5570477,52.7570662 C21.5570477,52.563864 21.5830671,52.3577818 21.6220961,52.1774597 L23.7556844,51.481932 C24.1719943,50.5030411 23.6646166,50.0779964 23.0791808,50.0779964 C22.0644254,50.0779964 20.9195731,51.8296959 20.9195731,53.2078712 C20.9195731,53.8647585 21.2318056,54.2254025 21.7261736,54.2254025 C22.3116094,54.2254025 22.9100549,53.6715564 23.4044229,52.7570662 M23.0661711,49.6143113 L24.2760718,48.5194991 L24.2760718,48.3649374 L23.4694713,48.3649374 L22.7539387,49.6271914 L23.0661711,49.6271914 L23.0661711,49.6143113 Z M18.5257911,50.6576029 L19.2413238,50.6576029 L18.1224909,53.6973166 C18.0184134,53.9549195 18.16152,54.2125224 18.4347233,54.2125224 C19.2283141,54.2125224 20.1910308,53.5427549 20.5422923,52.5896243 L20.347147,52.5896243 C20.0609339,52.9889088 19.4364691,53.4268336 18.9681204,53.5169946 L19.9958855,50.6576029 L21.04967,50.6576029 L21.1797668,50.219678 L20.1520017,50.219678 L20.5422923,49.1248658 L20.138992,49.1248658 L19.4104497,50.219678 L18.5388008,50.3355993 L18.5388008,50.6576029 L18.5257911,50.6576029 Z M18.16152,51.0053667 C18.3046265,50.5030411 18.2265684,50.0779964 17.8492875,50.0779964 C17.3679292,50.0779964 17.211813,50.4 16.7434643,51.4046512 L16.7434643,50.8379249 C16.7434643,50.4386404 16.6133675,50.0779964 16.2490963,50.0779964 C15.8197767,50.0779964 15.4294862,50.7477639 15.1172537,51.391771 L15.312399,51.391771 C15.5205539,51.0955277 15.7156992,50.9152057 15.8718154,50.9152057 C16.053951,50.9152057 16.1580285,51.1985689 15.8718154,51.8296959 L15.0391956,53.6586762 C14.8830794,54.0064401 15.0522053,54.2254025 15.3904571,54.2254025 C15.5986121,54.2254025 15.6896798,54.1738819 15.7807476,53.9549195 L16.6003578,51.8168157 C16.8345321,51.5334526 17.0426871,51.2887299 17.3028808,51.0182469 L18.16152,51.0182469 L18.16152,51.0053667 Z M13.62114,50.6447227 C13.907353,50.6447227 14.154537,50.8636852 14.0244402,51.3660107 L12.710462,51.7137746 C12.918617,51.0826476 13.3089075,50.6447227 13.62114,50.6447227 M14.3496823,52.7570662 L14.0894886,52.7570662 C13.7642465,53.1434705 13.3999753,53.4525939 13.0487138,53.4525939 C12.6844427,53.4525939 12.5023071,53.2336315 12.5023071,52.7570662 C12.5023071,52.563864 12.5283264,52.3577818 12.5673555,52.1774597 L14.7009438,51.481932 C15.1172537,50.5030411 14.6228857,50.0779964 14.0244402,50.0779964 C13.0096848,50.0779964 11.8648325,51.8296959 11.8648325,53.2078712 C11.8648325,53.8647585 12.177065,54.2254025 12.671433,54.2254025 C13.2568688,54.2254025 13.8553143,53.6715564 14.3496823,52.7570662 M9.37998273,53.6071556 C9.17182777,53.6071556 8.87260502,53.4139535 8.87260502,53.2465116 C8.87260502,53.1949911 8.96367281,52.9502683 9.08075998,52.654025 L9.41901178,51.752415 C9.78328296,51.3144902 10.3557091,50.8379249 10.6809512,50.8379249 C10.8760965,50.8379249 11.019203,50.9667263 11.019203,51.2372093 C11.0061933,52.0872987 10.2256122,53.6071556 9.37998273,53.6071556 M11.7477454,50.9152057 C11.7477454,50.2969589 11.5916291,50.0651163 11.1492999,50.0651163 C10.6028931,50.0651163 10.0955154,50.6447227 9.575128,51.3402504 L10.6679415,48.4293381 L10.6028931,48.3391771 L9.24988588,48.4937388 L9.24988588,48.6483005 L9.51007958,48.8415027 C9.7442539,49.0218247 9.66619579,49.2021467 9.45804084,49.768873 L8.27415952,52.8472272 C8.17008204,53.1048301 8.05299488,53.4139535 8.05299488,53.4912343 C8.05299488,53.8518784 8.5473629,54.1996422 9.00270187,54.1996422 C10.030467,54.2254025 11.7477454,52.3577818 11.7477454,50.9152057 M7.75377213,50.5159213 C7.83183024,50.2325581 7.64969465,50.0779964 7.49357843,50.0779964 C6.88212325,50.0779964 6.14057122,50.6318426 5.85435815,51.391771 L6.04950342,51.391771 C6.2446487,51.1084079 6.5829005,50.7992844 6.90814262,50.7477639 L5.7242613,53.7874776 C5.62018383,54.0708408 5.82833878,54.2254025 5.984455,54.2254025 C6.56989081,54.2254025 7.25940411,53.6715564 7.54561717,52.9116279 L7.3504719,52.9116279 C7.15532663,53.1949911 6.81707483,53.5041145 6.49183271,53.5556351 L7.75377213,50.5159213 Z M7.88386898,49.3051878 C8.14406267,49.3051878 8.36522731,49.0862254 8.36522731,48.8286225 C8.36522731,48.5710197 8.14406267,48.3520572 7.88386898,48.3520572 C7.6106656,48.3520572 7.40251064,48.5710197 7.40251064,48.8286225 C7.40251064,49.0862254 7.6106656,49.3051878 7.88386898,49.3051878 M4.87863179,48.7255814 L2.06853988,48.7255814 L1.99048177,48.957424 C2.81009191,49.1248658 2.88815002,49.2021467 2.51086916,50.2583184 L1.66523965,52.5381038 C1.27494911,53.5813953 1.11883289,53.6715564 0.169125902,53.8389982 L0.104077478,54.0708408 L4.37125409,54.0708408 L5.29494171,52.4350626 L4.96969959,52.4350626 C4.43630251,53.0146691 3.82484733,53.7488372 2.87514034,53.7488372 C2.15960767,53.7488372 2.0555302,53.6200358 2.45883042,52.5252236 L3.30445993,50.2454383 C3.69475048,49.2021467 3.8508667,49.1119857 4.80057368,48.9445438 L4.87863179,48.7255814 Z" id="Shape" fill="#000000"></path>
                <path d="M1,28.6976252 L2.8681138,28.6976252 L2.8681138,24.998823 L3.82848216,24.998823 L6.27544812,28.6976252 L8.51192238,28.6976252 L5.61766157,24.6459338 C6.08249733,24.4281008 6.44427993,24.1165999 6.70300937,23.7114308 C6.96173882,23.3062616 7.09110344,22.8292076 7.09110344,22.2802688 C7.09110344,21.4350772 6.79729218,20.7685086 6.20966946,20.280563 C5.62204675,19.7926175 4.82393253,19.5486446 3.81532643,19.5486446 L1,19.5486446 L1,28.6976252 Z M3.92057227,21.1301112 C4.3152442,21.1301112 4.62221119,21.2303144 4.84147344,21.4307206 C5.06073562,21.6311268 5.17036672,21.9055962 5.17036672,22.2541289 C5.17036672,22.6288015 5.06073562,22.9163409 4.84147344,23.116747 C4.62221119,23.3171532 4.3152442,23.4173564 3.92057227,23.4173564 L2.8681138,23.4173564 L2.8681138,21.1301112 L3.92057227,21.1301112 Z M13.3137642,18.7644463 L15.0240092,17 L13.1032725,17 L11.6166749,18.7644463 L13.3137642,18.7644463 Z M9.80118402,28.6976252 L15.1687222,28.6976252 L15.1687222,27.1161585 L11.6692978,27.1161585 L11.6692978,24.8289134 L14.642493,24.8289134 L14.642493,23.2474468 L11.6692978,23.2474468 L11.6692978,21.1301112 L15.1687222,21.1301112 L15.1687222,19.5486446 L9.80118402,19.5486446 L9.80118402,28.6976252 Z M17.4709752,28.6976252 L19.339089,28.6976252 L19.339089,24.998823 L20.509949,24.998823 C21.5185551,24.998823 22.3144769,24.7548502 22.8977142,24.2669046 C23.4809515,23.778959 23.7725703,23.116747 23.7725703,22.2802688 C23.7725703,21.4350772 23.4809515,20.7685086 22.8977142,20.280563 C22.3144769,19.7926175 21.5185551,19.5486446 20.509949,19.5486446 L17.4709752,19.5486446 L17.4709752,28.6976252 Z M20.5888834,21.1301112 C20.9835553,21.1301112 21.292715,21.2303144 21.5163624,21.4307206 C21.7400099,21.6311268 21.8518336,21.9055962 21.8518336,22.2541289 C21.8518336,22.6288015 21.7400099,22.9163409 21.5163624,23.116747 C21.292715,23.3171532 20.9835553,23.4173564 20.5888834,23.4173564 L19.339089,23.4173564 L19.339089,21.1301112 L20.5888834,21.1301112 Z M30.7714192,25.2732925 C30.7714192,25.8832246 30.6047798,26.3602786 30.2715014,26.7044544 C29.9382229,27.0486303 29.4865427,27.2207183 28.9164611,27.2207183 C28.3376089,27.2207183 27.8815435,27.0486303 27.5482651,26.7044544 C27.2149866,26.3602786 27.0483473,25.8832246 27.0483473,25.2732925 L27.0483473,19.5486446 L25.1802335,19.5486446 L25.1802335,25.1164528 C25.1802335,26.3101769 25.513512,27.2490367 26.1800691,27.9330318 C26.8466262,28.617027 27.7543716,28.9590246 28.9033054,28.9590246 C30.0522391,28.9590246 30.9621773,28.617027 31.6331196,27.9330318 C32.3040618,27.2490367 32.639533,26.3101769 32.639533,25.1164528 L32.639533,19.5486446 L30.7714192,19.5486446 L30.7714192,25.2732925 Z M35.0864989,28.6976252 L37.9018254,28.6976252 C38.9542838,28.6976252 39.7874801,28.4580091 40.4014142,27.9787767 C41.0153484,27.4995443 41.3223154,26.8416891 41.3223154,26.0052109 C41.3223154,25.5346919 41.1907581,25.1099178 40.9276435,24.7308886 C40.6645289,24.3518594 40.2917832,24.0534284 39.8094063,23.8355955 C40.1251439,23.6177626 40.3663322,23.3541849 40.5329716,23.0448622 C40.6996109,22.7355394 40.7829304,22.3978986 40.7829304,22.0319393 C40.7829304,21.2651676 40.5088528,20.6595922 39.9606973,20.2152132 C39.4125417,19.7708341 38.6604726,19.5486446 37.7044894,19.5486446 L35.0864989,19.5486446 L35.0864989,28.6976252 Z M37.7439566,21.1301112 C38.0947761,21.1301112 38.3688538,21.2194227 38.5661898,21.3980457 C38.7635257,21.5766687 38.8621937,21.8184632 38.8621937,22.1234291 C38.8621937,22.4458219 38.7635257,22.6941513 38.5661898,22.8684176 C38.3688538,23.0426838 38.0947761,23.129817 37.7439566,23.129817 L36.9546127,23.129817 L36.9546127,21.1301112 L37.7439566,21.1301112 Z M38.0070712,24.7243536 C38.4368252,24.7243536 38.7766815,24.826735 39.0266404,25.031498 C39.2765992,25.2362609 39.4015787,25.5259785 39.4015787,25.9006511 C39.4015787,26.2753237 39.2765992,26.5715763 39.0266404,26.7894092 C38.7766815,27.0072422 38.4368252,27.1161585 38.0070712,27.1161585 L36.9546127,27.1161585 L36.9546127,24.7243536 L38.0070712,24.7243536 Z M43.3614537,28.6976252 L48.7289919,28.6976252 L48.7289919,27.0115988 L45.2295675,27.0115988 L45.2295675,19.5486446 L43.3614537,19.5486446 L43.3614537,28.6976252 Z M50.5050156,28.6976252 L52.3731294,28.6976252 L52.3731294,19.5486446 L50.5050156,19.5486446 L50.5050156,28.6976252 Z M62.8056241,28.4623657 L62.2530834,27.9395668 C62.8143946,27.4951877 63.2573041,26.9375355 63.5818122,26.2666103 C63.9063203,25.5956852 64.0685742,24.8811933 64.0685742,24.1231349 C64.0685742,23.4696363 63.9501727,22.8488126 63.7133695,22.2606638 C63.4765664,21.6725151 63.1432879,21.1606078 62.713534,20.7249421 C62.28378,20.2892764 61.768514,19.9407438 61.1677356,19.6793443 C60.5669571,19.4179449 59.9069781,19.2872451 59.1877981,19.2872451 C58.468618,19.2872451 57.8064463,19.4179449 57.2012827,19.6793443 C56.5961191,19.9407438 56.0786604,20.2892764 55.6489064,20.7249421 C55.2191525,21.1606078 54.885874,21.6725151 54.6490709,22.2606638 C54.4122677,22.8488126 54.2938661,23.4696363 54.2938661,24.1231349 C54.2938661,24.7766335 54.4122677,25.3974572 54.6490709,25.9856059 C54.885874,26.5737547 55.2191525,27.085662 55.6489064,27.5213277 C56.0786604,27.9569934 56.5961191,28.305526 57.2012827,28.5669255 C57.8064463,28.8283249 58.468618,28.9590246 59.1877981,28.9590246 C59.4070603,28.9590246 59.6241299,28.9459547 59.8390067,28.9198147 C60.0538836,28.8936748 60.2577974,28.8544649 60.4507482,28.802185 L61.5426739,29.7693629 C61.9899688,30.1614621 62.4548045,30.4598931 62.9371814,30.664656 C63.4195583,30.869419 63.9150907,30.9718004 64.423779,30.9718004 C64.6255001,30.9718004 64.80091,30.9587304 64.9500082,30.9325905 C65.0991064,30.9064505 65.2482049,30.862884 65.3973031,30.8018907 L65.3973031,29.2334941 C65.3008278,29.2683474 65.1911966,29.2944873 65.0684098,29.3119139 C64.945623,29.3293405 64.8359918,29.3380538 64.7395165,29.3380538 C64.4413199,29.3380538 64.1321602,29.272704 63.8120375,29.1420043 C63.4919148,29.0113045 63.1564436,28.7847584 62.8056241,28.4623657 Z M59.1877981,27.2207183 C58.7580441,27.2207183 58.358987,27.1401201 57.9906265,26.9789238 C57.6222661,26.8177276 57.3087212,26.5998946 57.0499918,26.3254252 C56.7912623,26.0509558 56.5873485,25.7242065 56.4382503,25.3451773 C56.2891521,24.9661481 56.2146029,24.5588006 56.2146029,24.1231349 C56.2146029,23.6874692 56.2891521,23.2801217 56.4382503,22.9010925 C56.5873485,22.5220633 56.7912623,22.195314 57.0499918,21.9208446 C57.3087212,21.6463751 57.6222661,21.4285422 57.9906265,21.267346 C58.358987,21.1061497 58.7580441,21.0255515 59.1877981,21.0255515 C59.617552,21.0255515 60.0144164,21.1061497 60.3783917,21.267346 C60.742367,21.4285422 61.0537192,21.6463751 61.3124486,21.9208446 C61.5711781,22.195314 61.7750919,22.5220633 61.9241901,22.9010925 C62.0732883,23.2801217 62.1478375,23.6874692 62.1478375,24.1231349 C62.1478375,24.5588006 62.0732883,24.9661481 61.9241901,25.3451773 C61.7750919,25.7242065 61.5711781,26.0509558 61.3124486,26.3254252 C61.0537192,26.5998946 60.742367,26.8177276 60.3783917,26.9789238 C60.0144164,27.1401201 59.617552,27.2207183 59.1877981,27.2207183 Z M71.317382,25.2732925 C71.317382,25.8832246 71.1507427,26.3602786 70.8174642,26.7044544 C70.4841858,27.0486303 70.0325056,27.2207183 69.4624239,27.2207183 C68.8835718,27.2207183 68.4275064,27.0486303 68.0942279,26.7044544 C67.7609495,26.3602786 67.5943101,25.8832246 67.5943101,25.2732925 L67.5943101,19.5486446 L65.7261963,19.5486446 L65.7261963,25.1164528 C65.7261963,26.3101769 66.0594748,27.2490367 66.7260319,27.9330318 C67.392589,28.617027 68.3003344,28.9590246 69.4492682,28.9590246 C70.598202,28.9590246 71.5081401,28.617027 72.1790824,27.9330318 C72.8500247,27.2490367 73.1854958,26.3101769 73.1854958,25.1164528 L73.1854958,19.5486446 L71.317382,19.5486446 L71.317382,25.2732925 Z M75.6324618,28.6976252 L81,28.6976252 L81,27.1161585 L77.5005756,27.1161585 L77.5005756,24.8289134 L80.4737708,24.8289134 L80.4737708,23.2474468 L77.5005756,23.2474468 L77.5005756,21.1301112 L81,21.1301112 L81,19.5486446 L75.6324618,19.5486446 L75.6324618,28.6976252 Z M1,41.8957345 L2.8681138,41.8957345 L2.8681138,38.0270227 L5.841309,38.0270227 L5.841309,36.445556 L2.8681138,36.445556 L2.8681138,34.3282205 L6.36753823,34.3282205 L6.36753823,32.7467539 L1,32.7467539 L1,41.8957345 Z M8.14356191,41.8957345 L10.0116757,41.8957345 L10.0116757,38.1969323 L10.9720441,38.1969323 L13.41901,41.8957345 L15.6554843,41.8957345 L12.7612235,37.8440431 C13.2260592,37.6262101 13.5878418,37.3147092 13.8465713,36.90954 C14.1053007,36.5043709 14.2346654,36.0273169 14.2346654,35.4783781 C14.2346654,34.6331865 13.9408541,33.9666179 13.3532314,33.4786723 C12.7656087,32.9907267 11.9674944,32.7467539 10.9588883,32.7467539 L8.14356191,32.7467539 L8.14356191,41.8957345 Z M11.0641342,34.3282205 C11.4588061,34.3282205 11.7657731,34.4284237 11.9850354,34.6288299 C12.2042975,34.829236 12.3139286,35.1037055 12.3139286,35.4522381 C12.3139286,35.8269107 12.2042975,36.1144501 11.9850354,36.3148563 C11.7657731,36.5152625 11.4588061,36.6154657 11.0641342,36.6154657 L10.0116757,36.6154657 L10.0116757,34.3282205 L11.0641342,34.3282205 Z M15.7870416,41.8957345 L17.773557,41.8957345 L18.654991,39.5169995 L22.3385956,39.5169995 L23.2200296,41.8957345 L25.206545,41.8957345 L21.7202763,32.7467539 L19.2733103,32.7467539 L15.7870416,41.8957345 Z M19.2338431,37.9355329 L20.4967933,34.4981301 L21.7597435,37.9355329 L19.2338431,37.9355329 Z M26.7589212,41.8957345 L28.627035,41.8957345 L28.627035,35.3215384 L32.7447788,41.8957345 L35.1391219,41.8957345 L35.1391219,32.7467539 L33.2710081,32.7467539 L33.2710081,39.29481 L29.1532643,32.7467539 L26.7589212,32.7467539 L26.7589212,41.8957345 Z M41.9537905,40.4188276 C41.5240365,40.4188276 41.1249794,40.3382294 40.756619,40.1770331 C40.3882585,40.0158368 40.0747137,39.7980039 39.8159842,39.5235345 C39.5572548,39.2490651 39.3533409,38.9223158 39.2042427,38.5432866 C39.0551445,38.1642574 38.9805953,37.7569098 38.9805953,37.3212442 C38.9805953,36.8855785 39.0551445,36.478231 39.2042427,36.0992018 C39.3533409,35.7201726 39.5572548,35.3934233 39.8159842,35.1189538 C40.0747137,34.8444844 40.3882585,34.6266515 40.756619,34.4654552 C41.1249794,34.304259 41.5240365,34.2236607 41.9537905,34.2236607 C42.4800197,34.2236607 42.9470482,34.3391121 43.3548758,34.570015 C43.7627035,34.8009179 44.0981746,35.1037055 44.3612893,35.4783781 L45.8347311,34.3412905 C45.4137477,33.7923516 44.8699776,33.3457942 44.2034205,33.0016183 C43.5368634,32.6574425 42.7869867,32.4853544 41.9537905,32.4853544 C41.2346105,32.4853544 40.5724387,32.6160541 39.9672751,32.8774536 C39.3621115,33.138853 38.8446528,33.4873857 38.4148989,33.9230514 C37.9851449,34.358717 37.6518665,34.8706244 37.4150633,35.4587731 C37.1782602,36.0469219 37.0598586,36.6677455 37.0598586,37.3212442 C37.0598586,37.8963229 37.1541414,38.4496184 37.3427068,38.9811306 C37.5312722,39.5126429 37.7987722,39.9896969 38.1452064,40.4122926 C38.4916406,40.8348883 38.9104315,41.1921344 39.4015787,41.4840303 C39.8927259,41.7759263 40.4364963,41.9741543 41.0328893,42.0787141 L39.875185,44 L41.5328071,44 L42.6773557,42.104854 C43.3439128,42.0177208 43.9490764,41.812958 44.4928466,41.4905653 C45.0366167,41.1681726 45.4839116,40.7673603 45.8347311,40.2881279 L44.3612893,39.1641103 C44.0981746,39.5387829 43.7627035,39.8415704 43.3548758,40.0724733 C42.9470482,40.3033762 42.4800197,40.4188276 41.9537905,40.4188276 Z M46.426739,41.8957345 L48.4132544,41.8957345 L49.2946884,39.5169995 L52.978293,39.5169995 L53.859727,41.8957345 L55.8462424,41.8957345 L52.3599737,32.7467539 L49.9130077,32.7467539 L46.426739,41.8957345 Z M49.8735405,37.9355329 L51.1364907,34.4981301 L52.3994409,37.9355329 L49.8735405,37.9355329 Z M57.3986186,41.8957345 L59.2667324,41.8957345 L59.2667324,32.7467539 L57.3986186,32.7467539 L57.3986186,41.8957345 Z M61.148002,40.6279472 C61.5514445,41.1071795 62.0294359,41.4818519 62.5819766,41.7519648 C63.1345173,42.0220776 63.7966891,42.1571339 64.568492,42.1571339 C64.9894754,42.1571339 65.3841473,42.0939624 65.7525078,41.9676193 C66.1208683,41.8412762 66.440991,41.660475 66.7128762,41.4252155 C66.9847613,41.189956 67.2018309,40.9024166 67.3640849,40.5625973 C67.5263388,40.222778 67.6118511,39.8393922 67.6206216,39.4124397 C67.6206216,38.645668 67.4013594,38.061876 66.9628351,37.6610634 C66.5243108,37.2602509 66.0419339,36.93568 65.5157047,36.6873505 L65.0040929,36.4448299 C64.6727633,36.2870221 64.3609238,36.1369594 64.0685742,35.994642 C63.6300499,35.7811658 63.4107877,35.4696647 63.4107877,35.060139 C63.4107877,34.7900261 63.507263,34.56348 63.7002138,34.3805004 C63.8931646,34.1975208 64.1518938,34.106031 64.4764019,34.106031 C64.8272215,34.106031 65.1539221,34.2084124 65.4565039,34.4131753 C65.7590857,34.6179383 66.0463191,34.8945859 66.3182042,35.2431186 L67.6864003,34.0276111 C67.3004989,33.5658055 66.8378556,33.1933113 66.2984706,32.9101285 C65.7590857,32.6269457 65.1473442,32.4853544 64.4632462,32.4853544 C64.0247219,32.4853544 63.6256646,32.5550609 63.2660747,32.694474 C62.9064847,32.8338871 62.5973251,33.0234017 62.3385956,33.2630178 C62.0798662,33.5026339 61.878145,33.7858167 61.733432,34.112566 C61.588719,34.4393153 61.5163624,34.7813129 61.5163624,35.1385588 C61.5163624,35.8966172 61.7356247,36.471696 62.174149,36.8637951 C62.6126733,37.2558943 63.0950502,37.5761086 63.6212794,37.8244381 L63.8807396,37.9471506 C64.3070828,38.1492511 64.7029729,38.3392498 65.0684098,38.5171466 C65.5069341,38.7306228 65.7261963,39.0421239 65.7261963,39.4516496 C65.7261963,39.7827555 65.6209505,40.0419768 65.4104588,40.229313 C65.1999671,40.4166492 64.910541,40.5103174 64.5421806,40.5103174 C64.1650495,40.5103174 63.7988818,40.4101142 63.443677,40.209708 C63.0884723,40.0093019 62.7749274,39.7348324 62.5030423,39.3862998 L61.148002,40.6279472 Z M69.7123828,41.8957345 L69.7123828,32.7467539 L75.0799211,32.7467539 L75.0799211,34.3282205 L71.5804966,34.3282205 L71.5804966,36.445556 L74.5536918,36.445556 L74.5536918,38.0270227 L71.5804966,38.0270227 L71.5804966,40.3142678 L75.0799211,40.3142678 L75.0799211,41.8957345 L69.7123828,41.8957345 Z" id="RPUBLIQUEFRANAISE" fill="#000000"></path>
            </g>
        </g>
    </g>
</svg>